<svg xmlns="http://www.w3.org/2000/svg" viewBox="0 0 64 64" role="img" aria-labelledby="title">
  <title>ToonLivre Book Icon</title>
  <rect width="64" height="64" rx="16" fill="#0b0b0f"/>
  <path d="M32 18c-5.4-3.8-11-5.4-18-5.6A4 4 0 0 0 10 16v29.2a3.8 3.8 0 0 0 3.6 3.8c6.8.4 11.8 2 16.9 5.4a2.7 2.7 0 0 0 3 0c5.1-3.4 10.1-5 16.9-5.4a3.8 3.8 0 0 0 3.6-3.8V16a4 4 0 0 0-4-3.6c-7 .2-12.6 1.8-18 5.6Z" fill="#ffffff" fill-opacity="0.08"/>
  <path d="M32 18c-5.4-3.8-11-5.4-18-5.6A4 4 0 0 0 10 16v29.2a3.8 3.8 0 0 0 3.6 3.8c6.8.4 11.8 2 16.9 5.4M32 18c5.4-3.8 11-5.4 18-5.6A4 4 0 0 1 54 16v29.2a3.8 3.8 0 0 1-3.6 3.8c-6.8.4-11.8 2-16.9 5.4M32 18v36.4M17 23.5c4.7.4 8.7 1.6 13 4.4M17 31c4.7.4 8.7 1.6 13 4.4M47 23.5c-4.7.4-8.7 1.6-13 4.4M47 31c-4.7.4-8.7 1.6-13 4.4" fill="none" stroke="#ffffff" stroke-width="3.5" stroke-linecap="round" stroke-linejoin="round"/>
  <path d="M16 47c5.4.5 10 2 14.5 4.8M48 47c-5.4.5-10 2-14.5 4.8" fill="none" stroke="#22c55e" stroke-width="2.5" stroke-linecap="round" opacity="0.95"/>
</svg>
